<svg xmlns="http://www.w3.org/2000/svg" width="6in" height="9in" viewBox="0 0 600 900"><defs>
 <filter id="soft"><feGaussianBlur stdDeviation="1.2"/></filter>
 <pattern id="hatch" width="8" height="8" patternUnits="userSpaceOnUse"><path d="M0,8 L8,0" stroke="#6e6557" stroke-width="0.6" opacity="0.18"/></pattern>
 <pattern id="water" width="20" height="12" patternUnits="userSpaceOnUse"><path d="M0,7 C5,2 10,12 15,7 S25,2 30,7" fill="none" stroke="#617982" stroke-width="0.8" opacity="0.45"/></pattern>
 <marker id="arrow" viewBox="0 0 10 10" refX="8" refY="5" markerWidth="5" markerHeight="5" orient="auto-start-reverse"><path d="M0 0 L10 5 L0 10 z" fill="#625849"/></marker>
 </defs><style>
 .title{font-family:Georgia,'Times New Roman',serif;font-size:28px;font-weight:700;letter-spacing:2px;fill:#302a24}
 .subtitle{font-family:Georgia,'Times New Roman',serif;font-size:12px;font-style:italic;fill:#625849}
 .region{font-family:Georgia,'Times New Roman',serif;font-size:13px;letter-spacing:1.2px;fill:#766d61}
 .label{font-family:Georgia,'Times New Roman',serif;font-size:12px;fill:#2f2a24}
 .label-sm{font-family:Georgia,'Times New Roman',serif;font-size:10.5px;fill:#3c352d}
 .route-label{font-family:Georgia,'Times New Roman',serif;font-size:9px;font-style:italic;fill:#6b5f50}
 .legend{font-family:Georgia,'Times New Roman',serif;font-size:10px;fill:#4a4238}
 .note{font-family:Georgia,'Times New Roman',serif;font-size:9px;font-style:italic;fill:#6d6459}
 .road{fill:none;stroke:#6b5b47;stroke-width:2;stroke-linecap:round;stroke-linejoin:round}
 .road.local{stroke-width:1.3;stroke-dasharray:2 4}
 .road.cross{stroke-width:1.8;stroke-dasharray:8 5}
 .road.expedition{stroke-width:1.6;stroke-dasharray:4 4}
 .waterline{fill:none;stroke:#617982;stroke-width:3;opacity:.55}
 .owner{stroke:#2e2924;stroke-width:1.5;fill:#f3eddf}
 .owner.perm{fill:#2e2924}
 .inst{stroke:#2e2924;stroke-width:1.5;fill:#f3eddf}
 .landmark{stroke:#4d453c;stroke-width:1.2;fill:#d8cbb4}
 .memory{stroke:#8b4d3f;stroke-width:2;fill:none}
 </style><rect x="16" y="16" width="568" height="868" rx="8" fill="#f4efe2" stroke="#453d33" stroke-width="1.5"/>
 <text class="title" x="300" y="55" text-anchor="middle">MIRE HILL</text>
 <text class="subtitle" x="300" y="78" text-anchor="middle">Encounter + world-memory proof</text>
 <text class="region" x="300" y="150" text-anchor="middle">CENTRAL BASIN / DELTA APPROACH</text>
 <path class="waterline" d="M245,170 C270,280 230,390 255,520 C270,600 250,680 285,760" opacity=".4"/>
 <polyline class="road local" points="349,421.49999999999994 427.4,522 290.2,689.5 153,287.5 466.59999999999997,287.5"/><text class="route-label" x="294.2" y="685.5">Basin Market Road</text><polyline class="road cross" points="192.20000000000002,1326 153,287.5 486.2,1058"/><text class="route-label" x="157" y="283.5">Delta Causeway</text><circle class="landmark" cx="153" cy="287.5" r="3.8"/><text class="label" x="160" y="280.5" text-anchor="start">Mire Hill</text><circle class="owner " cx="349" cy="421.49999999999994" r="4.5"/><circle cx="349" cy="421.49999999999994" r="7" fill="none" stroke="#7a6f61" stroke-width=".8" stroke-dasharray="2 2"/><text class="label" x="356" y="414.49999999999994" text-anchor="start">Chins Road Commons</text><rect class="inst" x="462.59999999999997" y="283.5" width="8" height="8" transform="rotate(45 466.59999999999997 287.5)"/><text class="label" x="473.59999999999997" y="280.5" text-anchor="start">League Chamber</text><rect class="inst" x="423.4" y="518" width="8" height="8" transform="rotate(45 427.4 522)"/><text class="label" x="434.4" y="515" text-anchor="start">Pittsy’s Book</text><circle class="landmark" cx="290.2" cy="689.5" r="3.8"/><text class="label" x="297.2" y="682.5" text-anchor="start">Southern Speedway</text>
 <circle class="memory" cx="153" cy="287.5" r="34"/><circle class="memory" cx="153" cy="287.5" r="44" stroke-dasharray="5 5" opacity=".55"/>
 <path d="M191,259.5 L470,285" class="memory"/><rect x="360" y="230" width="180" height="88" rx="10" fill="#f4efe2" stroke="#8b4d3f" stroke-width="1"/>
 <text class="label" x="374" y="253">WEEK 3 MEMORY</text><text class="legend" x="374" y="274">scarred hill / yield memory</text><text class="legend" x="374" y="292">discarded standards may persist</text><text class="note" x="374" y="309">base geography unchanged</text>
 <text class="note" x="300" y="825" text-anchor="middle">State overlay is temporal; roads and location remain Atlas-stable.</text>
 </svg>